<svg xmlns="http://www.w3.org/2000/svg" width="362" height="306">
  <path fill="#231F20" d="M360.771 304.379H2.688V.864h358.083v303.515zM9.51 297.563h344.437V7.685H9.51v289.878z"/>
  <path fill="#231F20" d="M82.169 43.997h35.62c9.708 0 16.616 2.879 20.713 8.635 2.41 3.407 3.618 7.328 3.618 11.776 0 5.194-1.48 9.458-4.432 12.786-1.534 1.761-3.739 3.365-6.618 4.822 4.225 1.607 7.384 3.423 9.48 5.439 3.699 3.591 5.551 8.547 5.551 14.861 0 5.31-1.673 10.113-5.021 14.415-5.008 6.432-12.962 9.643-23.871 9.643h-35.04V43.997zm31.448 34.825c4.763 0 8.464-.657 11.109-1.963 4.156-2.057 6.232-5.759 6.232-11.105 0-5.384-2.21-9.007-6.627-10.88-2.493-1.043-6.198-1.569-11.11-1.569H93.107v25.518h20.51zm3.777 38.017c6.903 0 11.829-1.975 14.771-5.94 1.854-2.501 2.777-5.532 2.777-9.086 0-5.982-2.699-10.051-8.098-12.223-2.868-1.16-6.658-1.737-11.375-1.737H93.107v28.986h24.287zm33.773-72.842h11.274v34.038h42.34V43.997h11.275v82.378h-11.275V87.853h-42.34v38.522h-11.274V43.997zm110.651 0h35.628c9.71 0 16.617 2.879 20.715 8.635 2.408 3.407 3.619 7.328 3.619 11.776 0 5.194-1.485 9.458-4.434 12.786-1.532 1.761-3.735 3.365-6.613 4.822 4.215 1.607 7.382 3.423 9.468 5.439 3.707 3.591 5.561 8.547 5.561 14.861 0 5.31-1.676 10.113-5.024 14.415-5.007 6.432-12.962 9.643-23.873 9.643h-35.046V43.997zm31.455 34.825c4.76 0 8.467-.657 11.107-1.963 4.154-2.057 6.24-5.759 6.24-11.105 0-5.384-2.212-9.007-6.632-10.88-2.496-1.043-6.198-1.569-11.107-1.569h-20.124v25.518h20.516zm3.773 38.017c6.911 0 11.829-1.975 14.782-5.94 1.849-2.501 2.766-5.532 2.766-9.086 0-5.982-2.691-10.051-8.094-12.223-2.864-1.16-6.655-1.737-11.373-1.737h-22.369v28.986h24.288z"/>
  <circle cx="308.006" cy="259.225" r="10.683" fill="red"/>
</svg>
